<svg width="128" height="128" viewBox="0 0 128 128" fill="none" xmlns="http://www.w3.org/2000/svg">
<circle cx="64" cy="64" r="64" fill="#23283B"/>
<path fill-rule="evenodd" clip-rule="evenodd" d="M34.3989 81.5118C34.1552 81.5175 33.9143 81.458 33.7013 81.3392C33.4883 81.2205 33.311 81.047 33.1876 80.8366C33.0643 80.6263 32.9995 80.3867 33 80.1429C33.0005 79.8991 33.0661 79.6598 33.1902 79.4499L35.3943 75.4999C35.3943 75.4999 35.3943 75.571 38.7281 69.5354C41.2561 65.2536 43.6261 59.858 43.6261 53.538V45.0139C43.6261 36.2845 50.7361 24 64.6479 24C72.4531 24 78.0779 27.5471 81.546 32.3108C81.6455 32.3076 81.744 32.3323 81.8304 32.3819L89.4459 34.507C89.7837 34.5985 90.0917 34.7764 90.3398 35.0231C90.5879 35.2699 90.7674 35.5771 90.8607 35.9143C90.954 36.2516 90.9578 36.6073 90.8718 36.9465C90.7858 37.2857 90.6129 37.5966 90.3702 37.8486L85.6855 42.5886C85.7566 43.4418 85.8277 44.216 85.8277 45.0692V53.5222C85.8277 59.4156 87.8185 64.4557 90.0147 68.5321L93.0009 75.0654C93.0009 75.0654 93.0009 74.9943 95.0549 79.4657C95.157 79.679 95.2031 79.9148 95.1887 80.1509C95.1743 80.387 95.0999 80.6155 94.9726 80.8148C94.8452 81.0141 94.6692 81.1776 94.461 81.2899C94.2529 81.4022 94.0195 81.4595 93.783 81.4565L34.3989 81.5118ZM47.8921 72.9798H49.6617C53.5011 72.9798 78.1016 69.4327 78.1016 46.6413C78.1016 40.6057 73.6302 33.1482 64.6163 33.1482C55.6025 33.1482 51.1232 41.0481 51.1232 46.6413V52.1081C51.1232 56.1529 51.0521 60.4189 49.2114 65.3168C48.5004 67.0864 47.4339 69.2668 46.6518 70.8468C46.5363 71.065 46.4783 71.309 46.4832 71.5558C46.4881 71.8027 46.5558 72.0442 46.6799 72.2576C46.804 72.471 46.9804 72.6493 47.1925 72.7756C47.4046 72.902 47.6453 72.9723 47.8921 72.9798Z" fill="#F1A10D"/>
<path fill-rule="evenodd" clip-rule="evenodd" d="M47.1022 90.028C46.8927 90.0225 46.6852 90.0695 46.4986 90.1646C46.3119 90.2598 46.152 90.4001 46.0335 90.5729C45.9149 90.7456 45.8414 90.9453 45.8197 91.1537C45.798 91.3621 45.8288 91.5726 45.9093 91.766V91.845C46.9128 94.0499 48.3502 96.0301 50.1358 97.6673C51.9904 99.3774 54.1541 100.718 56.511 101.617C61.3609 103.461 66.7186 103.461 71.5684 101.617C73.9267 100.716 76.0927 99.3758 77.9516 97.6673C79.7344 96.0277 81.1714 94.0481 82.178 91.845V91.766C82.2607 91.5727 82.2932 91.3616 82.2724 91.1523C82.2517 90.9431 82.1784 90.7424 82.0594 90.5691C81.9404 90.3957 81.7796 90.2552 81.5917 90.1606C81.4039 90.066 81.1953 90.0204 80.9851 90.028H75.0918C74.8451 90.0359 74.6037 90.1015 74.387 90.2195C74.1702 90.3375 73.9841 90.5046 73.8436 90.7074C73.4008 91.3339 72.8923 91.9112 72.3268 92.4296C71.227 93.4523 69.9428 94.2566 68.5427 94.7996C65.6678 95.8949 62.4906 95.8949 59.6157 94.7996C58.2156 94.2566 56.9314 93.4523 55.8316 92.4296C55.2683 91.9091 54.76 91.332 54.3149 90.7074C54.1814 90.5067 54.0023 90.3405 53.7922 90.2224C53.5821 90.1043 53.347 90.0377 53.1062 90.028H47.1022Z" fill="#F1A10D"/>
</svg>
