<svg
    width="24"
    height="24"
    viewBox="0 0 16 15"
    fill="none"
    xmlns="http://www.w3.org/2000/svg"
>
    <path
        fill-rule="evenodd"
        clip-rule="evenodd"
        d="M7.76372 3.85355L8.56371 3.05353C9.20826 2.40901 10.3387 1.96172 11.4621 1.80125C12.0157 1.72217 12.5393 1.71725 12.9666 1.78124C13.4089 1.84748 13.68 1.97696 13.8066 2.10357C13.9332 2.23018 14.0627 2.50125 14.129 2.94357C14.1929 3.37086 14.188 3.89439 14.1089 4.44801C13.9485 5.57139 13.5012 6.70188 12.8566 7.34645L8.41015 11.7929L7.26369 10.6465C7.06843 10.4512 6.75185 10.4512 6.55659 10.6465C6.36133 10.8417 6.36133 11.1583 6.55659 11.3536L8.0566 12.8536C8.25186 13.0488 8.56844 13.0488 8.76371 12.8536L9.31088 12.3064L10.4814 14.2572C10.5606 14.3893 10.6962 14.4774 10.8491 14.4963C11.0019 14.5151 11.1548 14.4624 11.2637 14.3536L13.2637 12.3536C13.375 12.2423 13.4274 12.0851 13.4051 11.9293L12.9405 8.67679L13.5637 8.05355C14.4192 7.19808 14.9219 5.82855 15.0989 4.58943C15.1885 3.9618 15.1992 3.33847 15.1179 2.79546C15.0389 2.26748 14.8621 1.74482 14.5137 1.39645C14.1653 1.04809 13.6427 0.871332 13.1147 0.792264C12.5717 0.710945 11.9483 0.721644 11.3207 0.8113C10.0816 0.988306 8.71205 1.491 7.8566 2.34642L7.23337 2.96968L3.98087 2.50504C3.82507 2.48278 3.66789 2.53517 3.55661 2.64646L1.55661 4.64645C1.44774 4.75533 1.39509 4.90829 1.41391 5.0611C1.43272 5.21391 1.52089 5.34954 1.65291 5.42876L3.6038 6.59928L3.05662 7.14645C2.96285 7.24022 2.91017 7.3674 2.91017 7.50001C2.91017 7.63261 2.96285 7.75979 3.05662 7.85356L4.55662 9.35356C4.75188 9.54883 5.06847 9.54883 5.26373 9.35356C5.45899 9.1583 5.45899 8.84172 5.26373 8.64646L4.11728 7.50001L4.76373 6.85356L7.76372 3.85355ZM11.0094 13.1936L10.0398 11.5775L12.0566 9.56067L12.3798 11.8232L11.0094 13.1936ZM4.33267 5.87041L6.3495 3.85356L4.08694 3.53034L2.71654 4.90074L4.33267 5.87041ZM3.26371 10.3535C3.45898 10.1583 3.45898 9.8417 3.26371 9.64644C3.06845 9.45118 2.75187 9.45118 2.55661 9.64644L1.55661 10.6464C1.36134 10.8417 1.36134 11.1583 1.55661 11.3535C1.75187 11.5488 2.06845 11.5488 2.26371 11.3535L3.26371 10.3535ZM4.76374 11.8536C4.959 11.6583 4.959 11.3417 4.76374 11.1465C4.56848 10.9512 4.2519 10.9512 4.05664 11.1465L2.05661 13.1464C1.86135 13.3417 1.86134 13.6583 2.0566 13.8535C2.25186 14.0488 2.56845 14.0488 2.76371 13.8536L4.76374 11.8536ZM6.26371 13.3535C6.45898 13.1583 6.45898 12.8417 6.26371 12.6464C6.06845 12.4512 5.75187 12.4512 5.55661 12.6464L4.55661 13.6464C4.36134 13.8417 4.36134 14.1583 4.55661 14.3535C4.75187 14.5488 5.06845 14.5488 5.26371 14.3535L6.26371 13.3535ZM10.4101 6.74881C11.0998 6.74881 11.6589 6.1897 11.6589 5.5C11.6589 4.8103 11.0998 4.25118 10.4101 4.25118C9.72042 4.25118 9.16131 4.8103 9.16131 5.5C9.16131 6.1897 9.72042 6.74881 10.4101 6.74881Z"
        fill="#9e8cfc"
    />
</svg>