<svg
    width="16"
    height="15"
    viewBox="0 0 16 15"
    fill="none"
    xmlns="http://www.w3.org/2000/svg"
>
    <path
        fill-rule="evenodd"
        clip-rule="evenodd"
        d="M8.14358 4.69633C8.14358 2.96887 9.54357 1.5686 11.2702 1.5686C12.2838 1.5686 13.0932 2.04807 13.6356 2.74388C14.2182 2.6247 14.7659 2.40916 15.2615 2.11511C15.0661 2.72601 14.6526 3.23963 14.1136 3.56466C14.114 3.56571 14.1144 3.56677 14.1149 3.56782C14.6436 3.50364 15.1466 3.36305 15.615 3.15549L15.6139 3.15718C15.2769 3.66186 14.8533 4.10739 14.3664 4.47037C14.3925 4.64675 14.4058 4.8243 14.4058 5.00083C14.4058 8.68713 11.5975 12.9746 6.43144 12.9746C4.84928 12.9746 3.37566 12.5111 2.13527 11.7152C1.90285 11.5661 1.83532 11.2568 1.98445 11.0244C1.99762 11.0038 2.01204 10.9846 2.02756 10.9667C2.11604 10.8202 2.2846 10.731 2.46561 10.7523C3.38088 10.8601 4.2959 10.7486 5.10241 10.3963C4.30248 10.0434 3.68151 9.35978 3.41225 8.51977C3.36381 8.36863 3.39857 8.20314 3.50373 8.08425C3.50737 8.08014 3.51108 8.07609 3.51486 8.07213C2.87413 7.50822 2.46995 6.68211 2.46995 5.76146V5.72762C2.46995 5.56817 2.55433 5.42062 2.69177 5.33977C2.73692 5.3132 2.78559 5.29514 2.83553 5.28561C2.61571 4.86158 2.49138 4.37988 2.49138 3.86961C2.49138 3.40168 2.49405 2.81195 2.82354 2.28084C2.8974 2.16178 3.01779 2.08918 3.14662 2.07198C3.3361 2.0124 3.55109 2.06972 3.68427 2.23305C4.77558 3.57129 6.35087 4.49586 8.14387 4.73964L8.14358 4.69633ZM6.43144 11.9746C5.64408 11.9746 4.88803 11.8436 4.18269 11.6024C5.04034 11.4538 5.86329 11.116 6.5724 10.5602C6.72233 10.4427 6.78203 10.2436 6.72148 10.063C6.66092 9.88237 6.49322 9.75946 6.30277 9.7561C5.5999 9.74369 4.97734 9.39719 4.58815 8.86848C4.7785 8.85309 4.9645 8.82042 5.14467 8.7717C5.34625 8.71719 5.48384 8.53117 5.47696 8.32246C5.47007 8.11375 5.32051 7.93721 5.11577 7.89611C4.33716 7.7398 3.70904 7.16767 3.47191 6.42178C3.67276 6.47028 3.88124 6.49914 4.09504 6.50613C4.29585 6.5127 4.47668 6.38536 4.53817 6.19408C4.59965 6.0028 4.52688 5.79394 4.35985 5.68227C3.77545 5.29158 3.39138 4.62467 3.39138 3.86961C3.39138 3.70216 3.39374 3.55272 3.40377 3.41722C4.76137 4.79916 6.61895 5.68934 8.6861 5.79342C8.84247 5.80129 8.99349 5.73546 9.09417 5.61556C9.19484 5.49565 9.23354 5.33551 9.19873 5.18287C9.16277 5.0252 9.14358 4.86287 9.14358 4.69633C9.14358 3.52088 10.0961 2.5686 11.2702 2.5686C12.5045 2.5686 13.4058 3.71212 13.4058 5.00083C13.4058 8.25712 10.9304 11.9746 6.43144 11.9746Z"
        fill="#BCAFFD"
    />
</svg>